# xmcd
#
# Track frame offsets:
#        150
#        11912
#        25372
#        35692
#        41955
#        52855
#        66092
#        81387
#        95382
#        107337
#        123785
#        135320
#        146930
#        172907
#        195442
#
# Disc length: 2853 seconds
#
# Revision: 0
# Processed by: cddbd v1.5.1PL0 Copyright (c) Steve Scherf et al.
# Submitted via: ExactAudioCopy v0.95a5
#
DISCID=c70b230f
DTITLE=Euphone - Hashin' It Out
DYEAR=1900
DGENRE=A Cappella
TTITLE0=Gyrations
TTITLE1=Press On
TTITLE2=Where's The B?
TTITLE3=Newscast
TTITLE4=Bad Ascending
TTITLE5=Do You Up
TTITLE6=Oh You Ache
TTITLE7=Weekend
TTITLE8=Shut It
TTITLE9=Nick Is Ryan
TTITLE10=Honey,I'll Be Home By Suppertime
TTITLE11=My Ladies Can't Remember The Eighties
TTITLE12=Confirmation Of Suspicions
TTITLE13=Missing Donbea
TTITLE14=Trackstar
EXTD=
EXTT0=
EXTT1=
EXTT2=
EXTT3=
EXTT4=
EXTT5=
EXTT6=
EXTT7=
EXTT8=
EXTT9=
EXTT10=
EXTT11=
EXTT12=
EXTT13=
EXTT14=
PLAYORDER=
